<svg width="27" height="29" viewBox="0 0 27 29" fill="none" xmlns="http://www.w3.org/2000/svg">
<path d="M27 26.599C27 26.9969 26.842 27.3784 26.5607 27.6597C26.2794 27.941 25.8978 28.099 25.5 28.099H1.5C1.10218 28.099 0.720645 27.941 0.43934 27.6597C0.158036 27.3784 3.61066e-07 26.9969 3.61066e-07 26.599V10.834C-0.000158225 10.6055 0.0519258 10.3799 0.152274 10.1745C0.252622 9.96911 0.39858 9.78939 0.579 9.64904L12.579 0.316041C12.8423 0.111209 13.1664 0 13.5 0C13.8336 0 14.1577 0.111209 14.421 0.316041L26.421 9.64904C26.6014 9.78939 26.7474 9.96911 26.8477 10.1745C26.9481 10.3799 27.0002 10.6055 27 10.834V26.599ZM12 16.099V25.099H15V16.099H12Z" fill="white"/>
</svg>
